<svg width="50" height="50" viewBox="0 0 50 50" fill="none" xmlns="http://www.w3.org/2000/svg">
<circle opacity="0.1" cx="25" cy="25" r="25" fill="#9564AA"/>
<path fill-rule="evenodd" clip-rule="evenodd" d="M25 29C22.7909 29 21 27.2091 21 25C21 22.7909 22.7909 21 25 21C27.2091 21 29 22.7909 29 25C29 27.2091 27.2091 29 25 29ZM27 25C27 26.1046 26.1046 27 25 27C23.8954 27 23 26.1046 23 25C23 23.8954 23.8954 23 25 23C26.1046 23 27 23.8954 27 25Z" fill="#9564AA"/>
<path fill-rule="evenodd" clip-rule="evenodd" d="M31.6562 33.897L33.8733 31.6798L33.0925 28.843L33.4327 28.0305L36 26.5818V23.4464L33.44 21.9917L33.1055 21.1807L33.8961 18.3424L31.6774 16.1268L28.8403 16.9075L28.0296 16.5676L26.5808 14H23.4454L21.9907 16.56L21.1798 16.8945L18.342 16.1028L16.1267 18.3181L16.9075 21.1557L16.5676 21.9663L14 23.4151V26.5496L16.5577 28.0076L16.8925 28.8193L16.102 31.6572L18.3181 33.8733L21.1557 33.0925L21.9664 33.4325L23.4153 35.999H26.5498L28.0067 33.4412L28.8183 33.1065L31.6562 33.897ZM31.8527 26.6256L30.9809 28.7078L31.6362 31.0886L31.0678 31.657L28.692 30.9951L26.609 31.8542L25.3873 33.999H24.5829L23.3714 31.8529L21.2916 30.9808L18.9095 31.6362L18.342 31.0688L19.0039 28.693L18.1448 26.6101L16 25.3876V24.583L18.1471 23.3715L19.0192 21.2916L18.3638 18.9095L18.93 18.3432L21.3058 19.0059L23.3895 18.1466L24.6093 16H25.4129L26.6245 18.1471L28.7044 19.0192L31.087 18.3636L31.6558 18.9317L30.9941 21.307L31.8534 23.3906L34 24.6103V25.4139L31.8527 26.6256Z" fill="#9564AA"/>
</svg>
